PathFileType	4	(X/Y/Z)	C:\Users\Basilio\Documents\Thesis Gigler\squatting_fais\c3dfiles\039\SLS_pre_back4\markers_experimental.trc
DataRate	CameraRate	NumFrames	NumMarkers	Units	OrigDataRate	OrigDataStartFrame	OrigNumFrames
200.000000	200.000000	4	64	mm	200.000000	0	2133
Frame#	Time	FHD			LBHD			RBHD			C7			T10			CLAV			LSHO			LUUPA			LMUPA			LDUPA			LLEP			LMEP			LRAD			LUL			LRFIN			RSHO			RUPA1			RMUPA			RDUPA			RLEP			RMEP			RRAD			RUL			RUFIN			LASI			RASI			USACR			LSACR			RSACR			LTHI1			LTHI2			LTHI3			LTHI4			LLFC			LMFC			LTIB1			LTIB2			LTIB3			LTIB4			LLMAL			LMMAL			LHEE			LMT1			LMT2			LMT5			RTHI			RTHI2			RTHI3			RTHI4			RLFC			RMFC			RTIB1			RTIB2			RTIB3			RTIB4			RLMAL			RMMAL			RHEE			RMT1			RMT2			RMT5			*61			*62			*63			
		X1	Y1	Z1	X2	Y2	Z2	X3	Y3	Z3	X4	Y4	Z4	X5	Y5	Z5	X6	Y6	Z6	X7	Y7	Z7	X8	Y8	Z8	X9	Y9	Z9	X10	Y10	Z10	X11	Y11	Z11	X12	Y12	Z12	X13	Y13	Z13	X14	Y14	Z14	X15	Y15	Z15	X16	Y16	Z16	X17	Y17	Z17	X18	Y18	Z18	X19	Y19	Z19	X20	Y20	Z20	X21	Y21	Z21	X22	Y22	Z22	X23	Y23	Z23	X24	Y24	Z24	X25	Y25	Z25	X26	Y26	Z26	X27	Y27	Z27	X28	Y28	Z28	X29	Y29	Z29	X30	Y30	Z30	X31	Y31	Z31	X32	Y32	Z32	X33	Y33	Z33	X34	Y34	Z34	X35	Y35	Z35	X36	Y36	Z36	X37	Y37	Z37	X38	Y38	Z38	X39	Y39	Z39	X40	Y40	Z40	X41	Y41	Z41	X42	Y42	Z42	X43	Y43	Z43	X44	Y44	Z44	X45	Y45	Z45	X46	Y46	Z46	X47	Y47	Z47	X48	Y48	Z48	X49	Y49	Z49	X50	Y50	Z50	X51	Y51	Z51	X52	Y52	Z52	X53	Y53	Z53	X54	Y54	Z54	X55	Y55	Z55	X56	Y56	Z56	X57	Y57	Z57	X58	Y58	Z58	X59	Y59	Z59	X60	Y60	Z60	X61	Y61	Z61	X62	Y62	Z62	X63	Y63	Z63	X64	Y64	Z64	

1	0	-178.8282928466797	1794.722900390625	-842.655456542969	-304.3945312500001	1749.778564453125	-991.257019042969	-306.9169311523438	1756.361938476563	-850.4661254882815	-345.9034118652344	1589.501831054688	-929.8087158203127	-343.0130615234376	1276.15576171875	-936.845153808594	-197.4328002929688	1526.586059570313	-922.3776855468752	-253.7586364746094	1560.49658203125	-1117.773681640625	-281.7620239257813	1331.480346679688	-1208.381469726563	-234.3338623046876	1318.058959960938	-1198.307861328125	-261.2275085449219	1264.800415039063	-1212.444946289063	-243.1554718017579	1203.529174804688	-1215.181518554688	-285.3505249023438	1185.085083007813	-1147.010986328125	-96.273307800293	962.463806152344	-1146.228393554688	-137.4952545166016	946.7296142578127	-1207.60205078125	-44.55788803100587	892.643493652344	-1158.759887695313	-256.1126098632813	1541.484619140625	-729.4759521484376	-315.5963439941407	1313.404907226563	-659.6818847656251	-269.7774658203126	1295.457275390625	-659.1901245117189	-303.9569091796876	1245.399169921875	-657.4823608398439	-281.0364685058594	1187.498901367188	-653.2080688476564	-309.8226928710938	1171.147827148438	-727.5610961914064	-103.1750717163086	947.6145629882815	-685.9191284179689	-164.6419067382813	926.1469726562502	-646.1060791015626	-64.0655975341797	867.976013183594	-654.6526489257814	-168.0544128417969	1092.715942382813	-1044.6240234375	-170.5277709960938	1086.056030273438	-819.013366699219	-351.4594726562501	1152.015625	-931.833435058594	-354.7054138183594	1119.4423828125	-959.5028076171877	-359.7783203125001	1120.459838867188	-901.4817504882815	-268.4834899902344	820.585632324219	-1124.687866210938	-244.7487182617188	739.1491088867189	-1126.587768554688	-197.1743774414063	736.8386840820314	-1117.287963867188	-278.0767822265626	689.4705200195314	-1115.859375	-297.8659057617188	566.5310058593751	-1118.775024414063	-267.2590332031251	533.8750000000001	-1009.861938476563	-250.3777923583985	416.2702636718751	-1106.162475585938	-320.6720275878907	377.7311706542969	-1143.045166015625	-278.2543029785157	371.9650878906251	-1131.103515625	-275.2864379882813	291.2386474609376	-1095.842895507813	-341.0180358886719	122.5927886962891	-1126.7109375	-318.1373901367188	122.5996398925782	-1044.367797851563	-404.1954956054689	77.6126174926758	-1086.093994140625	-172.759521484375	56.64022827148439	-1069.614379882813	-180.0265808105469	51.26660156250001	-1112.418701171875	-227.0986938476563	31.00952911376954	-1162.120849609375	-233.9499053955079	820.873474121094	-743.4068603515626	-195.9828491210938	765.2360839843751	-739.1878662109376	-164.8195343017578	768.589782714844	-745.1322021484376	-226.2172241210938	686.4230346679689	-743.3651733398439	-269.0557556152344	548.4514160156251	-759.1958007812501	-232.3475189208985	526.8451538085939	-871.3770141601565	-257.0566711425782	332.0386352539063	-756.8948364257814	-349.9723205566407	278.9854736328126	-744.5095214843751	-305.3987731933594	263.7637329101563	-743.4329833984376	-293.4863891601563	211.3819427490235	-772.3826904296877	-370.3601989746094	124.986068725586	-744.2805786132814	-339.0425109863282	136.2975616455078	-828.5522460937502	-439.5416259765626	100.9057846069336	-793.5999755859377	-214.6302947998047	54.61455535888673	-804.265319824219	-218.9294128417969	54.5303192138672	-758.3821411132814	-273.9065246582032	35.1317481994629	-706.8079223632814	nan	nan	nan	nan	nan	nan	nan	nan	nan	
2	0.005	-178.833969116211	1794.717529296875	-842.5979614257815	-304.3750305175782	1749.782592773438	-991.1699218750002	-306.9260253906251	1756.349487304688	-850.3835449218752	-345.9385375976563	1589.51611328125	-929.7052001953127	-343.0130615234376	1276.15576171875	-936.845153808594	-197.4437255859376	1526.60205078125	-922.3215942382815	-253.816390991211	1560.528198242188	-1117.70263671875	-281.8022460937501	1331.483032226563	-1208.33349609375	-234.4096832275391	1318.122192382813	-1198.29248046875	-261.2743835449219	1264.832763671875	-1212.38671875	-243.2433471679688	1203.571411132813	-1215.139892578125	-285.4674987792969	1185.110595703125	-1146.98193359375	-96.32823181152347	962.471374511719	-1146.190063476563	-137.5771179199219	946.7310180664065	-1207.580810546875	-44.64027786254884	892.6355590820315	-1158.71484375	-256.1125488281251	1541.500610351563	-729.4024047851564	-315.6103820800782	1313.430053710938	-659.5774536132814	-269.7598266601563	1295.443725585938	-659.1118774414064	-303.9560241699219	1245.389892578125	-657.4013671875001	-281.0452270507813	1187.485229492188	-653.1357421875001	-309.8485412597657	1171.160034179688	-727.4816284179689	-103.2510223388672	947.5871582031252	-685.7982177734376	-164.6969604492188	926.113708496094	-646.0448608398439	-64.13882446289064	867.9722290039065	-654.6205444335939	-168.1076049804688	1092.7333984375	-1044.652709960938	-170.5332336425782	1086.114501953125	-819.013854980469	-351.7932434082032	1152.608642578125	-931.6768188476565	-354.6969604492188	1119.412475585938	-959.4961547851565	-359.7790527343751	1120.468627929688	-901.4509277343752	-268.4729614257813	820.584655761719	-1124.664306640625	-244.7596588134766	739.1500244140626	-1126.611572265625	-197.1754608154297	736.8607177734376	-1117.285034179688	-278.7260437011719	689.9577026367189	-1115.866821289063	-297.8803710937501	566.5081176757814	-1118.785034179688	-266.9091186523438	534.0065307617189	-1008.288513183594	-250.3725585937501	416.2618103027345	-1106.161010742188	-320.7149047851563	377.7330932617188	-1143.0654296875	-278.2946777343751	371.9625549316407	-1131.107666015625	-275.7380981445313	290.3750000000001	-1096.129028320313	-341.0666503906251	122.5781402587891	-1126.736328125	-318.1810913085938	122.6178894042969	-1044.382080078125	-404.2114257812501	77.61376953125001	-1086.0751953125	-172.7462310791016	56.64650726318361	-1069.631713867188	-180.0268096923828	51.2662925720215	-1112.418579101563	-227.1178131103516	31.00707435607911	-1162.100830078125	-233.9316711425782	820.8743896484377	-743.3800048828126	-195.9804687500001	765.2271118164064	-739.1753540039064	-164.8110809326172	768.5910644531252	-745.1083374023439	-226.2171783447266	686.4229736328126	-743.3652343750001	-269.0729064941407	548.4859008789064	-759.1907348632814	-232.3314361572266	526.8696289062501	-871.380065917969	-257.0525512695313	332.0217285156251	-756.9011840820314	-349.7580566406251	278.6929016113282	-744.6944580078126	-305.4424133300782	263.6844482421876	-743.6424560546876	-293.4811401367188	211.3654174804688	-772.3786621093752	-370.3472595214844	124.9754409790039	-744.2758178710939	-338.9569091796876	136.2703094482422	-828.5538330078127	-439.5163574218751	100.8795013427735	-793.608337402344	-214.5979003906251	54.62116622924806	-804.3029785156252	-218.934555053711	54.51304626464845	-758.3338623046876	-273.8754577636719	35.11978149414063	-706.8293457031251	nan	nan	nan	nan	nan	nan	nan	nan	nan	
3	0.01	-178.763656616211	1794.674926757813	-842.5697021484377	-304.4251098632813	1749.778686523438	-991.033874511719	-306.8797302246094	1756.36962890625	-850.2446899414065	-345.9619750976563	1589.50537109375	-929.6217041015627	-343.1493225097657	1276.173950195313	-936.841735839844	-197.4795532226563	1526.609985351563	-922.2667236328127	-253.801498413086	1560.552001953125	-1117.63623046875	-281.9026184082032	1331.512817382813	-1208.280639648438	-234.4519348144532	1318.115966796875	-1198.306396484375	-261.2953491210938	1264.833374023438	-1212.343505859375	-243.2933654785157	1203.577514648438	-1215.065795898438	-285.5610046386719	1185.166259765625	-1146.95751953125	-96.40723419189456	962.4498291015627	-1146.12646484375	-137.731185913086	946.7390747070315	-1207.521728515625	-44.78598022460938	892.6203613281252	-1158.646118164063	-256.1020812988282	1541.505981445313	-729.3193969726564	-315.0656127929688	1313.704956054688	-659.0112915039064	-269.8185119628907	1295.336791992188	-658.8579711914064	-303.9810485839844	1245.426513671875	-657.3295898437501	-281.0915527343751	1187.481201171875	-653.0557250976564	-309.9452209472657	1171.168090820313	-727.3863525390626	-103.3244171142578	947.5745849609377	-685.7970581054689	-164.7563781738282	926.1276855468752	-645.9978637695314	-64.23338317871095	867.9377441406252	-654.5753784179689	-168.0781860351563	1092.756225585938	-1044.603637695313	-170.5889587402344	1086.102905273438	-818.9786376953127	-351.5274353027344	1152.011108398438	-931.8074951171877	-354.7673950195313	1119.436157226563	-959.5216064453127	-359.8113403320313	1120.46142578125	-901.448913574219	-268.4945983886719	820.591247558594	-1124.644653320313	-244.7572326660157	739.1294555664064	-1126.5791015625	-197.1468811035157	736.8405761718751	-1117.29345703125	-278.7271728515626	689.9279785156251	-1115.863403320313	-297.9123535156251	566.5155639648439	-1118.7265625	-267.2780761718751	533.8541870117189	-1009.774353027344	-250.3524322509766	416.2743530273439	-1106.137817382813	-320.7677001953126	377.7315063476563	-1143.018798828125	-278.3282775878907	371.9750671386719	-1131.066650390625	-275.7380981445313	290.3750000000001	-1096.129028320313	-341.0668029785157	122.6089477539063	-1126.73974609375	-318.1649780273438	122.5749053955078	-1044.395141601563	-404.7043457031251	78.18574523925783	-1085.996459960938	-172.7303314208985	56.61365127563478	-1069.633056640625	-180.0635375976563	51.26512908935548	-1112.438232421875	-227.0411224365235	30.96615219116212	-1162.114624023438	-233.940414428711	820.8577880859377	-743.3498535156251	-195.9838409423829	765.2376708984376	-739.1381835937501	-164.8516082763672	768.5711669921877	-745.0652465820314	-226.2404327392579	686.3992919921876	-743.3412475585939	-269.0219421386719	548.4724731445314	-759.1456298828126	-232.3289642333985	526.8287353515626	-871.403503417969	-257.0597534179688	332.0175476074219	-756.8892822265626	-349.9199829101563	278.9785766601563	-744.4799804687501	-305.4104919433594	263.7483215332032	-743.4691772460939	-293.4811401367188	211.3654174804688	-772.3786621093752	-370.3591613769532	124.9848251342774	-744.2808227539064	-339.0279235839844	136.2825622558594	-828.5457763671877	-439.5065917968751	100.8990554809571	-793.5811157226565	-214.5977325439454	54.62546157836915	-804.2905883789065	-218.9765319824219	54.50469207763673	-758.3621826171876	-273.9168090820313	35.12981414794923	-706.8355102539064	nan	nan	nan	nan	nan	nan	nan	nan	nan	
4	0.015	-178.7356414794922	1794.655517578125	-842.4702148437502	-304.4200134277344	1749.80517578125	-990.9639282226565	-306.9237670898438	1756.339111328125	-850.1510009765627	-345.9775695800782	1589.512329101563	-929.5088500976565	-343.1241149902344	1276.174194335938	-936.7501220703127	-197.5028991699219	1526.62060546875	-922.2280883789065	-253.8593750000001	1560.568725585938	-1117.56689453125	-281.9338073730469	1331.529174804688	-1208.230712890625	-234.5744018554688	1318.15234375	-1198.248657226563	-261.3909606933594	1264.87060546875	-1212.317138671875	-243.3280029296876	1203.598510742188	-1215.066528320313	-285.5568237304688	1185.142578125	-1146.932373046875	-96.57944488525393	962.4539794921877	-1146.059814453125	-137.8470153808594	946.7437744140627	-1207.508056640625	-44.94295120239259	892.5771484375002	-1158.6005859375	-256.1111755371094	1541.502563476563	-729.2468261718751	-315.0964660644532	1313.709350585938	-658.9149169921876	-269.8147277832032	1295.328979492188	-658.7501220703126	-304.0304565429688	1245.44140625	-657.2431640625001	-281.1112670898438	1187.5029296875	-652.9786376953126	-309.9598388671876	1171.160766601563	-727.2681884765626	-103.3158493041992	947.5561523437502	-685.6927490234376	-164.7940216064453	926.142028808594	-645.8931274414064	-64.3280487060547	867.9231567382815	-654.4722290039064	-168.1687316894532	1092.740112304688	-1044.536743164063	-170.5820617675782	1086.084838867188	-818.9222412109377	-351.8922729492188	1152.613525390625	-931.6488037109377	-354.7552795410157	1119.437255859375	-959.4770507812502	-359.8314208984376	1120.435180664063	-901.4514770507815	-268.5275878906251	820.610534667969	-1124.61865234375	-244.7545623779297	739.1275634765626	-1126.589233398438	-197.1717987060547	736.8645629882814	-1117.272583007813	-278.7489013671876	689.9338378906251	-1115.8349609375	-297.8759460449219	566.5123291015626	-1118.714599609375	-266.8885803222657	533.9716186523439	-1008.236145019531	-250.3815460205079	416.2995605468751	-1106.16748046875	-320.6712646484376	377.7272033691407	-1143.025268554688	-278.2856445312501	371.9840393066407	-1131.074462890625	-275.7380981445313	290.3750000000001	-1096.129028320313	-341.0539550781251	122.5921630859375	-1126.740844726563	-318.1713256835938	122.5988311767578	-1044.376953125	-404.1952514648439	77.59825134277345	-1086.069091796875	-172.7218017578125	56.62068557739259	-1069.635498046875	-180.0394287109375	51.29024887084962	-1112.418579101563	-227.0570373535157	30.98298645019532	-1162.135131835938	-233.9372100830079	820.8609619140627	-743.3376464843751	-195.9835510253907	765.2374267578126	-739.1138305664064	-164.8467102050782	768.606140136719	-745.0650024414064	-226.4409179687501	686.0543823242189	-743.4146728515626	-269.0185852050782	548.4340820312501	-759.1304321289064	-232.3472747802735	526.8444824218751	-871.3767700195315	-257.0556030273438	332.0005493164063	-756.8956298828126	-349.7575683593751	278.6717834472657	-744.6940917968751	-305.4402160644532	263.6903686523438	-743.6143798828126	-293.4863586425782	211.3818664550782	-772.3826904296877	-370.6131896972657	125.1329193115235	-743.9364013671876	-338.9778137207032	136.29052734375	-828.518005371094	-439.5061950683595	100.8970184326172	-793.5791015625002	-214.6328430175782	54.59146118164064	-804.2585449218752	-218.9828796386719	54.52370834350587	-758.3668212890626	-273.8663635253907	35.1402702331543	-706.8485717773439	nan	nan	nan	nan	nan	nan	nan	nan	nan	
